<svg width="99" height="100" viewBox="0 0 99 100" fill="none" xmlns="http://www.w3.org/2000/svg">
<g id="Back to top">
<path id="Ellipse 33" d="M98.6536 50.2556C98.6536 77.498 76.5692 99.5824 49.3268 99.5824C22.0844 99.5824 0 77.498 0 50.2556C0 23.0132 22.0844 0.928802 49.3268 0.928802C76.5692 0.928802 98.6536 23.0132 98.6536 50.2556Z" fill="white"/>
<g id="Arrow">
<path id="Vector" d="M50.7544 33.8283C50.3757 33.4498 49.8622 33.2371 49.3268 33.2371C48.7914 33.2371 48.2779 33.4498 47.8992 33.8283L36.4764 45.2511C36.2836 45.4373 36.1297 45.6601 36.0239 45.9065C35.9181 46.1529 35.8624 46.4178 35.8601 46.6859C35.8577 46.954 35.9088 47.2199 36.0104 47.4681C36.1119 47.7162 36.2618 47.9417 36.4514 48.1313C36.641 48.3209 36.8664 48.4708 37.1146 48.5723C37.3628 48.6739 37.6286 48.725 37.8968 48.7226C38.1649 48.7203 38.4298 48.6646 38.6762 48.5588C38.9225 48.4529 39.1453 48.2991 39.3316 48.1063L47.3076 40.1303V66.8709C47.3076 67.4065 47.5203 67.9201 47.899 68.2987C48.2777 68.6774 48.7913 68.8901 49.3268 68.8901C49.8623 68.8901 50.3759 68.6774 50.7546 68.2987C51.1333 67.9201 51.346 67.4065 51.346 66.8709V40.1303L59.322 48.1063C59.7028 48.4741 60.2128 48.6776 60.7423 48.673C61.2717 48.6684 61.7782 48.456 62.1525 48.0817C62.5269 47.7073 62.7393 47.2008 62.7439 46.6714C62.7485 46.142 62.545 45.6319 62.1771 45.2511L50.7544 33.8283Z" fill="#31317B"/>
</g>
<g id="Vector_2">
<path d="M21.0589 41.4097C20.8531 41.7605 20.6443 41.8087 20.4726 41.708C20.0621 41.4672 20.5749 40.8149 19.9693 40.3595C19.6372 40.1046 18.0185 39.1354 16.0552 37.9842C14.1964 36.8942 12.7767 36.0818 12.5932 35.9843C11.6879 35.5437 11.3616 36.3054 10.9062 36.0384C10.7196 35.9289 10.6478 35.7263 10.8404 35.3979C11.0593 35.0246 11.4161 34.5015 11.6569 34.091C12.1121 33.3146 12.5226 32.512 12.9515 31.7804C14.0546 29.8992 15.6445 28.1629 17.6078 29.3142C18.8022 30.0145 18.9483 31.5447 18.787 32.333C18.7844 32.3716 18.788 32.4339 18.8328 32.4602C18.8776 32.4864 18.9337 32.4592 18.9513 32.4293C20.1495 31.1556 21.6736 30.695 22.8979 31.4129C25.5107 32.9449 24.5156 35.5315 23.4301 37.3829C22.9748 38.1593 22.1903 39.3946 21.7263 40.1859C21.4899 40.589 21.269 41.0514 21.0589 41.4097ZM13.3276 34.3383L15.9031 35.8485C16.2315 36.0411 16.387 35.8614 16.5753 35.5404C16.9736 34.8611 17.5022 33.8569 17.6751 33.1858C17.9182 32.275 17.659 31.4509 16.8304 30.965C15.4568 30.1596 14.4239 31.3396 13.5178 32.8848C12.9137 33.915 12.9767 34.1326 13.3276 34.3383ZM21.9284 33.1518C20.9206 32.5608 19.9004 32.7952 18.9913 33.7469C18.5286 34.228 17.8264 35.3912 17.4018 36.1153C17.2311 36.4065 17.2169 36.6189 17.6574 36.8771L20.7031 38.6631C21.1361 38.9169 21.323 38.9061 22.2948 37.2489C23.3628 35.4274 23.4438 34.0403 21.9284 33.1518Z" fill="#31317B"/>
<path d="M24.2505 28.6476C24.8865 27.6245 25.9455 26.5658 25.9923 26.3402C26.006 26.2548 25.9901 26.1137 25.6354 25.7464C24.7518 24.8313 23.6447 24.4448 22.6798 25.3765C21.9078 26.1219 22.1432 27.0134 22.5539 27.6755C22.7621 28.0157 22.8128 28.2675 22.5264 28.544C22.2463 28.8145 21.6869 28.9578 21.212 28.466C20.5447 27.775 20.6767 26.1799 22.1396 24.7673C23.7955 23.1683 25.6471 23.3292 27.0898 24.8233C27.8893 25.6512 28.9089 26.8441 29.4018 27.3546C29.6783 27.641 30.0364 27.8125 30.3041 27.554C30.4721 27.3917 30.4681 27.2753 30.5677 27.1791C30.5988 27.1491 30.7154 27.1328 30.8536 27.2759C31.2624 27.6993 31.2118 28.494 30.6702 29.017C30.1908 29.4798 29.6558 29.6235 29.0067 29.3C28.9279 29.2558 28.8484 29.2483 28.8049 29.2903C28.7613 29.3324 28.7896 29.4614 28.7879 29.5593C28.7736 30.3792 28.3833 31.3455 27.6239 32.0788C26.5718 33.0947 25.209 33.3279 24.2593 32.3443C23.3215 31.3732 23.4185 30.0285 24.2505 28.6476ZM27.2102 27.3897C26.8795 27.0473 26.7282 26.9529 26.641 27.037C25.9874 27.6682 25.5375 28.1989 25.2406 28.7261C24.6911 29.7019 24.8734 30.4762 25.3182 30.9369C25.9013 31.5407 26.687 31.4076 27.2846 30.8305C28.2371 29.9108 28.3042 28.5227 27.2102 27.3897Z" fill="#31317B"/>
<path d="M29.2654 24.5929C27.992 22.4303 28.3053 19.705 30.6095 18.3482C32.1531 17.4392 33.7434 17.718 34.3405 18.7321C34.7357 19.4032 34.392 20.0475 33.9297 20.3198C33.5941 20.5174 33.5159 20.2822 33.1525 19.9037C32.4742 19.1783 31.6088 18.8343 30.7662 19.3305C29.6775 19.9716 29.4312 21.5828 30.3753 23.1861C31.3808 24.8938 33.1126 25.6516 34.7456 24.6899C36.1699 23.8512 36.1658 22.5481 36.1326 21.8948C36.1352 21.7627 36.1544 21.5907 36.2513 21.5336C36.3856 21.4546 36.5269 21.5923 36.6499 21.8011C37.2383 22.8003 37.0923 25.0254 35.0416 26.2329C32.9611 27.4581 30.5608 26.7927 29.2654 24.5929Z" fill="#31317B"/>
<path d="M39.4356 21.0981C39.798 22.2723 39.9872 22.5037 40.4544 22.6674C40.7096 22.7607 41.0283 22.7076 41.1125 22.9805C41.1712 23.1707 41.1065 23.3718 40.6931 23.4994C40.3789 23.5964 39.8617 23.7108 39.4813 23.8282C39.0431 23.9635 38.7251 24.1069 38.2538 24.2524C37.8734 24.3698 37.7257 24.2434 37.6695 24.0615C37.5853 23.7886 37.8275 23.6051 37.9489 23.4409C38.2647 23.0264 38.239 22.7083 38.1114 22.2948L35.5435 13.9764C35.4363 13.6291 35.1512 13.527 34.7873 13.5216C34.6015 13.5065 34.4029 13.45 34.3518 13.2846C34.2574 12.9787 34.576 12.8079 34.9689 12.4964C35.6212 11.969 35.8614 11.6322 36.1425 11.5454C36.4237 11.4586 36.6102 11.5641 36.7123 11.8948C36.8731 12.4158 36.9991 13.1467 38.4541 17.8599C38.8038 18.9928 38.8744 19.0162 38.9488 18.9933C39.2548 18.8988 41.0572 16.0239 40.9091 15.5443C40.8172 15.2466 40.235 15.209 40.138 14.8948C40.0538 14.6219 40.2433 14.4728 40.4334 14.4141C40.8055 14.2993 41.1573 14.236 41.546 14.116C41.9263 13.9986 42.5229 13.7601 42.804 13.6733C43.0604 13.5942 43.2926 13.613 43.3743 13.8776C43.4713 14.1919 43.0345 14.5078 42.7187 14.9223C42.2903 15.4711 41.4506 17.0345 40.5407 18.3117C40.4842 18.3925 40.4727 18.4142 40.4855 18.4555C40.4983 18.4968 40.5415 18.5197 40.6045 18.5184C43.2616 18.6763 44.5149 20.6532 45.7998 20.9721C45.8704 20.9955 46.2987 21.0626 46.3855 21.3437C46.4186 21.4512 46.4564 21.7203 46.167 21.8097C45.8942 21.8939 45.2638 22.0523 44.8834 22.1697C44.4617 22.2999 43.7551 22.5633 43.5153 22.6373C43.2507 22.719 43.0197 22.6454 42.9507 22.4221C42.8691 22.1575 43.1946 21.9212 43.0976 21.607C42.993 21.2679 42.4402 20.7684 41.6477 20.3428C40.6439 19.8195 39.8448 19.8126 39.6132 19.884C39.1833 20.0168 39.2135 20.3787 39.4356 21.0981Z" fill="#31317B"/>
<path d="M52.1658 14.3754C52.1405 14.6517 51.9961 17.5565 51.9709 18.4301C51.9432 19.3903 52.0654 20.5539 53.2418 20.5879C53.8647 20.6059 54.3611 20.2046 54.6377 19.9183C54.7895 19.7582 54.8701 19.6653 54.9826 19.6685C55.0691 19.671 55.1884 19.735 55.1814 19.9773C55.1772 20.1243 55.119 20.3391 54.983 20.5516C54.6468 21.1046 53.8954 21.94 52.4508 21.8983C51.0322 21.8574 50.2117 20.89 50.2731 18.7621C50.2963 17.9576 50.4839 15.3571 50.5049 14.6305C50.5136 14.3278 50.4482 14.196 50.224 14.1636C49.491 14.0645 49.1022 14.036 49.1117 13.7072C49.1182 13.4823 49.227 13.3123 49.4981 13.2163C49.9618 13.0478 50.4617 12.8285 50.8196 12.4233C51.4639 11.6974 51.5109 10.6685 51.9781 10.682C52.2116 10.6887 52.3438 10.9089 52.333 11.2809C52.324 11.5923 52.1951 13.0604 52.1934 13.1209C52.1921 13.1642 52.1916 13.1815 52.2608 13.1835C52.3819 13.1869 54.4261 13.1507 54.6078 13.156C54.8846 13.1639 55.081 13.2562 55.0708 13.6108C55.0631 13.879 54.9065 14.2035 54.7733 14.3208C54.7288 14.3628 54.6324 14.4033 54.5199 14.4001C54.3556 14.3953 52.4896 14.2549 52.2907 14.2492C52.2388 14.2477 52.1777 14.2632 52.1658 14.3754Z" fill="#31317B"/>
<path d="M55.9968 17.4915C56.6425 14.8698 58.8141 13.4706 61.1921 14.0563C63.4524 14.6129 65.0552 16.7901 64.3372 19.7059C63.6501 22.4956 61.4265 23.4185 59.1493 22.8577C56.5697 22.2224 55.3781 20.0039 55.9968 17.4915ZM60.8069 14.9328C59.6053 14.6369 58.3592 15.4263 57.8709 17.4093C57.7012 18.0983 57.5848 19.0411 57.7767 19.8905C58.0664 21.1026 58.8724 21.7022 59.6455 21.8926C60.8134 22.1802 62.0791 21.6007 62.5509 19.6849C62.7765 18.769 62.7897 17.7384 62.5938 16.9415C62.2918 15.8154 61.6135 15.1315 60.8069 14.9328Z" fill="#31317B"/>
<path d="M72.685 20.6015C72.5213 20.8255 70.9045 23.243 70.4339 23.9795C69.9166 24.7889 69.4234 25.8499 70.4151 26.4836C70.9402 26.8192 71.5722 26.7301 71.9567 26.6266C72.1692 26.5673 72.2861 26.529 72.3809 26.5896C72.4538 26.6362 72.5233 26.7525 72.3928 26.9567C72.3136 27.0806 72.1533 27.235 71.9274 27.3474C71.3547 27.6489 70.2809 27.9794 69.0631 27.2012C67.8672 26.4369 67.6605 25.1854 68.8069 23.3916C69.2403 22.7135 70.7377 20.5791 71.1292 19.9666C71.2923 19.7114 71.3038 19.5647 71.1282 19.4217C70.5503 18.96 70.2315 18.7357 70.4086 18.4586C70.5298 18.269 70.7105 18.1791 70.9924 18.236C71.4768 18.3299 72.0182 18.3986 72.5336 18.235C73.4594 17.9434 74.0285 17.085 74.4223 17.3366C74.6192 17.4625 74.6193 17.7193 74.4189 18.0329C74.2512 18.2954 73.3861 19.4884 73.3534 19.5395C73.3301 19.5759 73.3208 19.5905 73.3792 19.6278C73.4813 19.693 75.2534 20.7126 75.4065 20.8104C75.6399 20.9596 75.761 21.1397 75.5699 21.4386C75.4255 21.6647 75.1244 21.8626 74.9498 21.8947C74.8901 21.9079 74.7866 21.8931 74.6918 21.8325C74.5532 21.744 73.0247 20.6645 72.857 20.5573C72.8133 20.5294 72.7529 20.5113 72.685 20.6015Z" fill="#31317B"/>
<path d="M74.3568 25.2401C76.2638 23.3287 78.846 23.2522 80.5797 24.9819C82.2277 26.6261 82.4756 29.3182 80.3547 31.4441C78.3255 33.478 75.9448 33.1198 74.2845 31.4634C72.4038 29.587 72.5293 27.0719 74.3568 25.2401ZM79.7971 25.5336C78.921 24.6596 77.4464 24.6919 76.0039 26.1377C75.5027 26.6401 74.9162 27.3873 74.6418 28.2137C74.2638 29.4013 74.6442 30.3309 75.2079 30.8932C76.0594 31.7428 77.4425 31.9003 78.8361 30.5035C79.5023 29.8357 80.0459 28.96 80.2897 28.1765C80.6127 27.0563 80.3852 26.1203 79.7971 25.5336Z" fill="#31317B"/>
<path d="M85.5561 39.2408C83.2173 40.6411 80.7346 40.4028 79.5121 38.361C78.7075 37.0171 79.3125 35.9387 79.2281 35.7976C79.1703 35.7011 79.0188 35.7514 78.7144 35.9337L76.9251 37.005C76.3905 37.3251 76.4761 37.7882 76.4966 38.1088C76.5201 38.4175 76.5777 38.7159 76.3401 38.8581C76.1545 38.9693 75.963 38.9528 75.7407 38.5815C75.5763 38.3068 75.2859 37.7544 75.0414 37.3461C74.7925 36.9303 74.536 36.5694 74.2827 36.1462C74.0782 35.8047 74.1614 35.6237 74.3174 35.5303C74.5624 35.3836 74.8056 35.5708 74.991 35.6616C75.4717 35.8579 75.7716 35.7691 76.1502 35.5424L83.3003 31.2615C83.6418 31.057 83.6317 30.7706 83.5504 30.4158C83.5209 30.2317 83.5374 30.0403 83.6859 29.9514C83.9755 29.778 84.2186 30.0662 84.622 30.3693C85.144 30.7527 85.4674 30.9222 85.6052 31.1524C85.7164 31.338 85.7058 31.5057 85.4741 31.7251C85.125 32.035 84.6899 32.3358 84.7655 32.462C84.8544 32.6105 86.5478 32.5246 87.5125 34.1357C88.5883 35.9325 87.7984 37.8983 85.5561 39.2408ZM86.1945 34.2087C85.5855 33.1915 84.0766 32.6929 82.0719 33.8932C79.8965 35.1957 79.6651 36.595 80.3008 37.6567C80.9499 38.7407 82.4292 39.0553 84.4191 37.8639C86.3792 36.6903 86.848 35.3001 86.1945 34.2087Z" fill="#31317B"/>
</g>
</g>
</svg>
