<svg width="143" height="137" viewBox="0 0 143 137" fill="none" xmlns="http://www.w3.org/2000/svg">
<g id="Hamburger">
<g id="Ellipse 4" filter="url(#filter0_f_134_526)">
<circle cx="64.5" cy="72.5" r="44.5" stroke="#F1EAD9" stroke-width="4"/>
</g>
<circle id="Ellipse 3" cx="64.5" cy="72.5" r="42.5" fill="#375F33"/>
<path id="Vector" d="M50.7778 82H79.2222C80.2 82 81 81.2125 81 80.25C81 79.2875 80.2 78.5 79.2222 78.5H50.7778C49.8 78.5 49 79.2875 49 80.25C49 81.2125 49.8 82 50.7778 82ZM50.7778 73.25H79.2222C80.2 73.25 81 72.4625 81 71.5C81 70.5375 80.2 69.75 79.2222 69.75H50.7778C49.8 69.75 49 70.5375 49 71.5C49 72.4625 49.8 73.25 50.7778 73.25ZM49 62.75C49 63.7125 49.8 64.5 50.7778 64.5H79.2222C80.2 64.5 81 63.7125 81 62.75C81 61.7875 80.2 61 79.2222 61H50.7778C49.8 61 49 61.7875 49 62.75Z" fill="white"/>
</g>
<defs>
<filter id="filter0_f_134_526" x="0.299999" y="8.3" width="128.4" height="128.4" filterUnits="userSpaceOnUse" color-interpolation-filters="sRGB">
<feFlood flood-opacity="0" result="BackgroundImageFix"/>
<feBlend mode="normal" in="SourceGraphic" in2="BackgroundImageFix" result="shape"/>
<feGaussianBlur stdDeviation="8.85" result="effect1_foregroundBlur_134_526"/>
</filter>
</defs>
</svg>
