<svg width="77" height="77" viewBox="0 0 77 77" fill="none" xmlns="http://www.w3.org/2000/svg">
<g id="Sound">
<circle id="Ellipse 15" cx="38.5" cy="38.5" r="38.5" fill="#971B1C"/>
<g id="Group">
<path id="Vector" d="M22.1134 43.2918C21.3849 41.9856 21 40.491 21 38.9678C21 37.4447 21.3849 35.9501 22.1134 34.6439C22.3375 34.2418 22.6373 33.8945 22.9936 33.6245C23.3498 33.3544 23.7547 33.1674 24.1822 33.0756L27.7093 32.3161C27.9196 32.2714 28.1093 32.1504 28.2468 31.9734L32.5551 26.4105C35.0176 23.2291 36.2509 21.6407 37.3489 22.0686C38.4509 22.4965 38.4509 24.5667 38.4509 28.7069V49.2333C38.4509 53.3713 38.4509 55.4392 37.3509 55.8693C36.253 56.295 35.0197 54.7066 32.5572 51.5274L28.2426 45.9623C28.1057 45.7858 27.9168 45.6648 27.7072 45.6196L24.1801 44.8601C23.7526 44.7683 23.3478 44.5813 22.9915 44.3112C22.6352 44.0412 22.3375 43.6939 22.1134 43.2918Z" fill="white"/>
<path id="Vector_2" d="M43.7344 31.0459C45.6782 33.1361 46.7749 35.9679 46.7854 38.924C46.796 41.8802 45.7195 44.7209 43.7906 46.8271M52.3198 26.294C55.4299 29.6382 57.1847 34.1687 57.2019 38.8983C57.219 43.6278 55.4971 48.173 52.4115 51.5431" stroke="white" stroke-width="4.16667" stroke-linecap="round"/>
</g>
</g>
</svg>
